# xmcd CD database file
#
# Track frame offsets:
#	150
#	15867
#	36062
#	54910
#	71335
#	86255
#	107040
#	128795
#	144080
#	159930
#	179237
#	191195
#
# Disc length: 2776 seconds
#
# Revision: 0
# Processed by: cddbd v1.5.2PL0 Copyright (c) Steve Scherf et al.
# Submitted via: CDex 1.51
#
DISCID=910ad60c
DTITLE=Music Blessing Ricbard Clayderman - Love Song From Asia
DYEAR=1998
DGENRE=New Age
TTITLE0=Place De Sun Airport - Listen to The Sea
TTITLE1=Friends
TTITLE2=Sea of Tears
TTITLE3=Love Follow Us
TTITLE4=Lemon Tree
TTITLE5=It  Is Not My Fault To Love Him
TTITLE6=Mariage D'amour
TTITLE7=Love Me Forever
TTITLE8=Holding With Love
TTITLE9=Crazy For Love
TTITLE10=It Is Worth To Love
TTITLE11=Everlasting Love
EXTD=YEAR: 1998
EXTT0=
EXTT1=
EXTT2=
EXTT3=
EXTT4=
EXTT5=
EXTT6=
EXTT7=
EXTT8=
EXTT9=
EXTT10=
EXTT11=
PLAYORDER=
